<mxfile host="app.diagrams.net" agent="Mozilla/5.0 (Macintosh; Intel Mac OS X 10_15_7) AppleWebKit/605.1.15 (KHTML, like Gecko) Version/18.6 Safari/605.1.15" version="28.2.7">
  <diagram name="Seite-1" id="JjTCV3cyfgGm-suk0b_S">
    <mxGraphModel dx="1028" dy="693" grid="1" gridSize="10" guides="1" tooltips="1" connect="1" arrows="1" fold="1" page="1" pageScale="1" pageWidth="827" pageHeight="1169" background="#FFFFFF" math="0" shadow="0">
      <root>
        <mxCell id="0" />
        <mxCell id="1" parent="0" />
        <mxCell id="l1EzZLQc0XKkSLJejIoX-1" value="Ablauf Spielraum" style="shape=umlFrame;whiteSpace=wrap;html=1;pointerEvents=0;width=80;height=35;" vertex="1" parent="1">
          <mxGeometry x="20" y="200" width="1130" height="320" as="geometry" />
        </mxCell>
        <mxCell id="l1EzZLQc0XKkSLJejIoX-2" value="Spieler angemeldet" style="rounded=1;whiteSpace=wrap;html=1;" vertex="1" parent="1">
          <mxGeometry x="40" y="330" width="120" height="60" as="geometry" />
        </mxCell>
        <mxCell id="l1EzZLQc0XKkSLJejIoX-10" value="" style="edgeStyle=orthogonalEdgeStyle;rounded=0;orthogonalLoop=1;jettySize=auto;html=1;" edge="1" parent="1" source="l1EzZLQc0XKkSLJejIoX-5" target="l1EzZLQc0XKkSLJejIoX-9">
          <mxGeometry relative="1" as="geometry" />
        </mxCell>
        <mxCell id="l1EzZLQc0XKkSLJejIoX-5" value="erstellt Spielraum" style="whiteSpace=wrap;html=1;rounded=1;" vertex="1" parent="1">
          <mxGeometry x="250" y="290" width="120" height="60" as="geometry" />
        </mxCell>
        <mxCell id="l1EzZLQc0XKkSLJejIoX-27" value="" style="edgeStyle=orthogonalEdgeStyle;rounded=0;orthogonalLoop=1;jettySize=auto;html=1;" edge="1" parent="1" source="l1EzZLQc0XKkSLJejIoX-7">
          <mxGeometry relative="1" as="geometry">
            <mxPoint x="470" y="429.9999999999998" as="targetPoint" />
          </mxGeometry>
        </mxCell>
        <mxCell id="l1EzZLQc0XKkSLJejIoX-7" value="Raum Id eingeben&amp;nbsp;" style="whiteSpace=wrap;html=1;rounded=1;" vertex="1" parent="1">
          <mxGeometry x="250" y="400" width="120" height="60" as="geometry" />
        </mxCell>
        <mxCell id="l1EzZLQc0XKkSLJejIoX-9" value="Spiel starten" style="whiteSpace=wrap;html=1;rounded=1;" vertex="1" parent="1">
          <mxGeometry x="470" y="290" width="120" height="60" as="geometry" />
        </mxCell>
        <mxCell id="l1EzZLQc0XKkSLJejIoX-14" value="" style="edgeStyle=orthogonalEdgeStyle;rounded=0;orthogonalLoop=1;jettySize=auto;html=1;" edge="1" parent="1" source="l1EzZLQc0XKkSLJejIoX-2">
          <mxGeometry relative="1" as="geometry">
            <mxPoint x="160" y="360" as="sourcePoint" />
            <mxPoint x="200" y="360" as="targetPoint" />
          </mxGeometry>
        </mxCell>
        <mxCell id="l1EzZLQc0XKkSLJejIoX-31" value="" style="edgeStyle=orthogonalEdgeStyle;rounded=0;orthogonalLoop=1;jettySize=auto;html=1;entryX=0;entryY=0.5;entryDx=0;entryDy=0;exitX=0.29;exitY=0.147;exitDx=0;exitDy=0;exitPerimeter=0;" edge="1" parent="1" source="l1EzZLQc0XKkSLJejIoX-15" target="l1EzZLQc0XKkSLJejIoX-5">
          <mxGeometry relative="1" as="geometry" />
        </mxCell>
        <mxCell id="l1EzZLQc0XKkSLJejIoX-32" value="" style="edgeStyle=orthogonalEdgeStyle;rounded=0;orthogonalLoop=1;jettySize=auto;html=1;" edge="1" parent="1" source="l1EzZLQc0XKkSLJejIoX-15" target="l1EzZLQc0XKkSLJejIoX-7">
          <mxGeometry relative="1" as="geometry" />
        </mxCell>
        <mxCell id="l1EzZLQc0XKkSLJejIoX-15" value="" style="line;strokeWidth=1;fillColor=none;align=left;verticalAlign=middle;spacingTop=-1;spacingLeft=3;spacingRight=3;rotatable=0;labelPosition=right;points=[];portConstraint=eastwest;strokeColor=inherit;direction=south;" vertex="1" parent="1">
          <mxGeometry x="200" y="290" width="8" height="180" as="geometry" />
        </mxCell>
        <mxCell id="l1EzZLQc0XKkSLJejIoX-38" value="" style="edgeStyle=orthogonalEdgeStyle;rounded=0;orthogonalLoop=1;jettySize=auto;html=1;" edge="1" parent="1" source="l1EzZLQc0XKkSLJejIoX-16" target="l1EzZLQc0XKkSLJejIoX-37">
          <mxGeometry relative="1" as="geometry" />
        </mxCell>
        <mxCell id="l1EzZLQc0XKkSLJejIoX-16" value="" style="line;strokeWidth=1;fillColor=none;align=left;verticalAlign=middle;spacingTop=-1;spacingLeft=3;spacingRight=3;rotatable=0;labelPosition=right;points=[];portConstraint=eastwest;strokeColor=inherit;direction=south;" vertex="1" parent="1">
          <mxGeometry x="620" y="300" width="8" height="170" as="geometry" />
        </mxCell>
        <mxCell id="l1EzZLQc0XKkSLJejIoX-25" value="" style="ellipse;html=1;shape=endState;fillColor=#000000;strokeColor=#ff0000;" vertex="1" parent="1">
          <mxGeometry x="1055" y="470" width="30" height="30" as="geometry" />
        </mxCell>
        <mxCell id="l1EzZLQc0XKkSLJejIoX-33" style="edgeStyle=orthogonalEdgeStyle;rounded=0;orthogonalLoop=1;jettySize=auto;html=1;exitX=1;exitY=0.5;exitDx=0;exitDy=0;entryX=0.117;entryY=1.029;entryDx=0;entryDy=0;entryPerimeter=0;" edge="1" parent="1" source="l1EzZLQc0XKkSLJejIoX-9" target="l1EzZLQc0XKkSLJejIoX-16">
          <mxGeometry relative="1" as="geometry" />
        </mxCell>
        <mxCell id="l1EzZLQc0XKkSLJejIoX-45" style="edgeStyle=orthogonalEdgeStyle;rounded=0;orthogonalLoop=1;jettySize=auto;html=1;exitX=0.5;exitY=1;exitDx=0;exitDy=0;entryX=0.5;entryY=1;entryDx=0;entryDy=0;" edge="1" parent="1" source="l1EzZLQc0XKkSLJejIoX-34" target="l1EzZLQc0XKkSLJejIoX-7">
          <mxGeometry relative="1" as="geometry" />
        </mxCell>
        <mxCell id="l1EzZLQc0XKkSLJejIoX-46" value="Raum Id nicht valide" style="edgeLabel;html=1;align=center;verticalAlign=middle;resizable=0;points=[];" vertex="1" connectable="0" parent="l1EzZLQc0XKkSLJejIoX-45">
          <mxGeometry x="-0.1532" y="2" relative="1" as="geometry">
            <mxPoint x="-10" y="-12" as="offset" />
          </mxGeometry>
        </mxCell>
        <mxCell id="l1EzZLQc0XKkSLJejIoX-34" value="" style="rhombus;whiteSpace=wrap;html=1;" vertex="1" parent="1">
          <mxGeometry x="470" y="410" width="30" height="40" as="geometry" />
        </mxCell>
        <mxCell id="l1EzZLQc0XKkSLJejIoX-36" value="Raum Id valide" style="edgeStyle=orthogonalEdgeStyle;rounded=0;orthogonalLoop=1;jettySize=auto;html=1;exitX=1;exitY=0.5;exitDx=0;exitDy=0;entryX=0.76;entryY=0.882;entryDx=0;entryDy=0;entryPerimeter=0;" edge="1" parent="1" source="l1EzZLQc0XKkSLJejIoX-34" target="l1EzZLQc0XKkSLJejIoX-16">
          <mxGeometry x="-0.0137" y="-10" relative="1" as="geometry">
            <mxPoint x="-10" y="10" as="offset" />
          </mxGeometry>
        </mxCell>
        <mxCell id="l1EzZLQc0XKkSLJejIoX-40" value="" style="edgeStyle=orthogonalEdgeStyle;rounded=0;orthogonalLoop=1;jettySize=auto;html=1;" edge="1" parent="1" source="l1EzZLQc0XKkSLJejIoX-37" target="l1EzZLQc0XKkSLJejIoX-39">
          <mxGeometry relative="1" as="geometry" />
        </mxCell>
        <mxCell id="l1EzZLQc0XKkSLJejIoX-37" value="&lt;span style=&quot;text-align: left; background-color: rgb(255, 255, 255);&quot;&gt;Spielen&lt;/span&gt;" style="rounded=1;whiteSpace=wrap;html=1;" vertex="1" parent="1">
          <mxGeometry x="670" y="355" width="120" height="60" as="geometry" />
        </mxCell>
        <mxCell id="l1EzZLQc0XKkSLJejIoX-41" value="alle Spieler Raum verlassen" style="edgeStyle=orthogonalEdgeStyle;rounded=0;orthogonalLoop=1;jettySize=auto;html=1;exitX=1;exitY=0.5;exitDx=0;exitDy=0;entryX=0;entryY=0.5;entryDx=0;entryDy=0;" edge="1" parent="1" source="l1EzZLQc0XKkSLJejIoX-39">
          <mxGeometry x="-0.1549" y="-15" relative="1" as="geometry">
            <mxPoint x="1012" y="384.9999999999998" as="targetPoint" />
            <mxPoint as="offset" />
          </mxGeometry>
        </mxCell>
        <mxCell id="l1EzZLQc0XKkSLJejIoX-42" style="edgeStyle=orthogonalEdgeStyle;rounded=0;orthogonalLoop=1;jettySize=auto;html=1;exitX=0.5;exitY=0;exitDx=0;exitDy=0;entryX=0.5;entryY=0;entryDx=0;entryDy=0;" edge="1" parent="1" source="l1EzZLQc0XKkSLJejIoX-39" target="l1EzZLQc0XKkSLJejIoX-9">
          <mxGeometry relative="1" as="geometry" />
        </mxCell>
        <mxCell id="l1EzZLQc0XKkSLJejIoX-47" value="spieler bleiben in Raum" style="edgeLabel;html=1;align=center;verticalAlign=middle;resizable=0;points=[];" vertex="1" connectable="0" parent="l1EzZLQc0XKkSLJejIoX-42">
          <mxGeometry x="0.1955" y="2" relative="1" as="geometry">
            <mxPoint y="-12" as="offset" />
          </mxGeometry>
        </mxCell>
        <mxCell id="l1EzZLQc0XKkSLJejIoX-39" value="" style="rhombus;whiteSpace=wrap;html=1;" vertex="1" parent="1">
          <mxGeometry x="840" y="367.5" width="30" height="35" as="geometry" />
        </mxCell>
        <mxCell id="l1EzZLQc0XKkSLJejIoX-44" value="" style="edgeStyle=orthogonalEdgeStyle;rounded=0;orthogonalLoop=1;jettySize=auto;html=1;" edge="1" parent="1" source="l1EzZLQc0XKkSLJejIoX-43" target="l1EzZLQc0XKkSLJejIoX-25">
          <mxGeometry relative="1" as="geometry" />
        </mxCell>
        <mxCell id="l1EzZLQc0XKkSLJejIoX-43" value="Raum lÃ¶schen" style="rounded=1;whiteSpace=wrap;html=1;" vertex="1" parent="1">
          <mxGeometry x="1010" y="355" width="120" height="60" as="geometry" />
        </mxCell>
        <mxCell id="l1EzZLQc0XKkSLJejIoX-48" value="" style="ellipse;html=1;shape=startState;fillColor=#000000;strokeColor=#ff0000;" vertex="1" parent="1">
          <mxGeometry x="100" y="240" width="30" height="30" as="geometry" />
        </mxCell>
        <mxCell id="l1EzZLQc0XKkSLJejIoX-49" value="" style="edgeStyle=orthogonalEdgeStyle;html=1;verticalAlign=bottom;endArrow=open;endSize=8;strokeColor=#ff0000;rounded=0;" edge="1" source="l1EzZLQc0XKkSLJejIoX-48" parent="1">
          <mxGeometry relative="1" as="geometry">
            <mxPoint x="115" y="330" as="targetPoint" />
          </mxGeometry>
        </mxCell>
      </root>
    </mxGraphModel>
  </diagram>
</mxfile>
